# xmcd
#
# Track frame offsets:
#	150
#	14340
#	42364
#	54932
#	68540
#	84665
#	105155
#	119215
#	132592
#	147992
#	158977
#	178187
#
# Disc length: 2521 seconds
#
# Revision: 0
# Processed by: cddbd v1.4PL0 Copyright (c) Steve Scherf et al.
# Submitted via: dBpowerAMP V4.0
#
DISCID=a609d70c
DTITLE=Darleens - This Is Darleens
DYEAR=2003
DGENRE=Pop
TTITLE0=Neverending Rain
TTITLE1=Soft And Sweet - Who
TTITLE2=One Last Ride
TTITLE3=Girl On Death Row
TTITLE4=Lazy Grazy Day
TTITLE5=The Morning Has Gone
TTITLE6=Meanwhile
TTITLE7=Forever
TTITLE8=Where´s The Playground, Johnny
TTITLE9=The Night We Where Running Away
TTITLE10=Sunset Boulevard
TTITLE11=A Life Between Us
EXTD=
EXTT0=
EXTT1=
EXTT2=
EXTT3=
EXTT4=
EXTT5=
EXTT6=
EXTT7=
EXTT8=
EXTT9=
EXTT10=
EXTT11=
PLAYORDER=
